<?xml version="1.0" encoding="UTF-8" standalone="no"?>
<!DOCTYPE svg PUBLIC "-//W3C//DTD SVG 1.1//EN"
 "http://www.w3.org/Graphics/SVG/1.1/DTD/svg11.dtd">
<!-- Generated by graphviz version 2.44.1 (20200629.0846)
 -->
<!-- Title: dependencies Pages: 1 -->
<svg width="1180pt" height="284pt"
 viewBox="0.00 0.00 1180.00 284.00" xmlns="http://www.w3.org/2000/svg" xmlns:xlink="http://www.w3.org/1999/xlink">
<g id="graph0" class="graph" transform="scale(1 1) rotate(0) translate(4 280)">
<title>dependencies</title>
<polygon fill="white" stroke="transparent" points="-4,4 -4,-280 1176,-280 1176,4 -4,4"/>
<text text-anchor="start" x="565.01" y="-42.4" font-family="sans-serif" font-weight="bold" font-size="14.00">Legend</text>
<polygon fill="#ffffb3" stroke="transparent" points="352,-10 352,-30 372,-30 372,-10 352,-10"/>
<text text-anchor="start" x="375.63" y="-15.4" font-family="sans-serif" font-size="14.00"> &#160;Declarations</text>
<polygon fill="#8dd3c7" stroke="transparent" points="465,-10 465,-30 485,-30 485,-10 465,-10"/>
<text text-anchor="start" x="488.73" y="-15.4" font-family="sans-serif" font-size="14.00"> &#160;Module</text>
<polygon fill="#80b1d3" stroke="transparent" points="551,-10 551,-30 571,-30 571,-10 551,-10"/>
<text text-anchor="start" x="574.78" y="-15.4" font-family="sans-serif" font-size="14.00"> &#160;Bootstrap</text>
<polygon fill="#fdb462" stroke="transparent" points="648,-10 648,-30 668,-30 668,-10 648,-10"/>
<text text-anchor="start" x="671.67" y="-15.4" font-family="sans-serif" font-size="14.00"> &#160;Providers</text>
<polygon fill="#fb8072" stroke="transparent" points="744,-10 744,-30 764,-30 764,-10 744,-10"/>
<text text-anchor="start" x="767.73" y="-15.4" font-family="sans-serif" font-size="14.00"> &#160;Exports</text>
<g id="clust1" class="cluster">
<title>cluster_AppModule</title>
<polygon fill="none" stroke="black" stroke-dasharray="1,5" points="8,-70 8,-268 1164,-268 1164,-70 8,-70"/>
</g>
<g id="clust9" class="cluster">
<title>cluster_AppModule_imports</title>
<polygon fill="none" stroke="black" points="920,-78 920,-130 1156,-130 1156,-78 920,-78"/>
</g>
<g id="clust2" class="cluster">
<title>cluster_AppModule_declarations</title>
<polygon fill="none" stroke="black" points="16,-78 16,-130 912,-130 912,-78 16,-78"/>
</g>
<g id="clust11" class="cluster">
<title>cluster_AppModule_bootstrap</title>
<polygon fill="none" stroke="black" points="573,-208 573,-260 697,-260 697,-208 573,-208"/>
</g>
<!-- AppComponent -->
<g id="node1" class="node">
<title>AppComponent</title>
<polygon fill="#ffffb3" stroke="black" points="903.94,-122 798.06,-122 798.06,-86 903.94,-86 903.94,-122"/>
<text text-anchor="middle" x="851" y="-99.8" font-family="Times,serif" font-size="14.00">AppComponent</text>
</g>
<!-- AppModule -->
<g id="node7" class="node">
<title>AppModule</title>
<polygon fill="#8dd3c7" stroke="black" points="676.66,-187 673.66,-191 652.66,-191 649.66,-187 593.34,-187 593.34,-151 676.66,-151 676.66,-187"/>
<text text-anchor="middle" x="635" y="-164.8" font-family="Times,serif" font-size="14.00">AppModule</text>
</g>
<!-- AppComponent&#45;&gt;AppModule -->
<g id="edge1" class="edge">
<title>AppComponent&#45;&gt;AppModule</title>
<path fill="none" stroke="black" d="M851,-122.03C851,-138.4 851,-160 851,-160 851,-160 686.9,-160 686.9,-160"/>
<polygon fill="black" stroke="black" points="686.9,-156.5 676.9,-160 686.9,-163.5 686.9,-156.5"/>
</g>
<!-- DashboardComponent -->
<g id="node2" class="node">
<title>DashboardComponent</title>
<polygon fill="#ffffb3" stroke="black" points="779.97,-122 638.03,-122 638.03,-86 779.97,-86 779.97,-122"/>
<text text-anchor="middle" x="709" y="-99.8" font-family="Times,serif" font-size="14.00">DashboardComponent</text>
</g>
<!-- DashboardComponent&#45;&gt;AppModule -->
<g id="edge2" class="edge">
<title>DashboardComponent&#45;&gt;AppModule</title>
<path fill="none" stroke="black" d="M657.42,-122.11C657.42,-122.11 657.42,-140.99 657.42,-140.99"/>
<polygon fill="black" stroke="black" points="653.92,-140.99 657.42,-150.99 660.92,-140.99 653.92,-140.99"/>
</g>
<!-- FooterComponent -->
<g id="node3" class="node">
<title>FooterComponent</title>
<polygon fill="#ffffb3" stroke="black" points="619.88,-122 502.12,-122 502.12,-86 619.88,-86 619.88,-122"/>
<text text-anchor="middle" x="561" y="-99.8" font-family="Times,serif" font-size="14.00">FooterComponent</text>
</g>
<!-- FooterComponent&#45;&gt;AppModule -->
<g id="edge3" class="edge">
<title>FooterComponent&#45;&gt;AppModule</title>
<path fill="none" stroke="black" d="M606.56,-122.11C606.56,-122.11 606.56,-140.99 606.56,-140.99"/>
<polygon fill="black" stroke="black" points="603.06,-140.99 606.56,-150.99 610.06,-140.99 603.06,-140.99"/>
</g>
<!-- HeaderComponent -->
<g id="node4" class="node">
<title>HeaderComponent</title>
<polygon fill="#ffffb3" stroke="black" points="483.74,-122 362.26,-122 362.26,-86 483.74,-86 483.74,-122"/>
<text text-anchor="middle" x="423" y="-99.8" font-family="Times,serif" font-size="14.00">HeaderComponent</text>
</g>
<!-- HeaderComponent&#45;&gt;AppModule -->
<g id="edge4" class="edge">
<title>HeaderComponent&#45;&gt;AppModule</title>
<path fill="none" stroke="black" d="M423,-122.03C423,-138.4 423,-160 423,-160 423,-160 583.12,-160 583.12,-160"/>
<polygon fill="black" stroke="black" points="583.12,-163.5 593.12,-160 583.12,-156.5 583.12,-163.5"/>
</g>
<!-- HeaderDarkComponent -->
<g id="node5" class="node">
<title>HeaderDarkComponent</title>
<polygon fill="#ffffb3" stroke="black" points="343.73,-122 194.27,-122 194.27,-86 343.73,-86 343.73,-122"/>
<text text-anchor="middle" x="269" y="-99.8" font-family="Times,serif" font-size="14.00">HeaderDarkComponent</text>
</g>
<!-- HeaderDarkComponent&#45;&gt;AppModule -->
<g id="edge5" class="edge">
<title>HeaderDarkComponent&#45;&gt;AppModule</title>
<path fill="none" stroke="black" d="M269,-122.11C269,-141.34 269,-169 269,-169 269,-169 583.02,-169 583.02,-169"/>
<polygon fill="black" stroke="black" points="583.02,-172.5 593.02,-169 583.02,-165.5 583.02,-172.5"/>
</g>
<!-- HeaderLightComponent -->
<g id="node6" class="node">
<title>HeaderLightComponent</title>
<polygon fill="#ffffb3" stroke="black" points="176.08,-122 23.92,-122 23.92,-86 176.08,-86 176.08,-122"/>
<text text-anchor="middle" x="100" y="-99.8" font-family="Times,serif" font-size="14.00">HeaderLightComponent</text>
</g>
<!-- HeaderLightComponent&#45;&gt;AppModule -->
<g id="edge6" class="edge">
<title>HeaderLightComponent&#45;&gt;AppModule</title>
<path fill="none" stroke="black" d="M100,-122.29C100,-144.21 100,-178 100,-178 100,-178 583.02,-178 583.02,-178"/>
<polygon fill="black" stroke="black" points="583.02,-181.5 593.02,-178 583.02,-174.5 583.02,-181.5"/>
</g>
<!-- AppComponent  -->
<g id="node10" class="node">
<title>AppComponent </title>
<polygon fill="#80b1d3" stroke="black" points="689.44,-252 580.56,-252 580.56,-216 689.44,-216 689.44,-252"/>
<text text-anchor="middle" x="635" y="-229.8" font-family="Times,serif" font-size="14.00">AppComponent </text>
</g>
<!-- AppModule&#45;&gt;AppComponent  -->
<g id="edge9" class="edge">
<title>AppModule&#45;&gt;AppComponent </title>
<path fill="none" stroke="black" stroke-dasharray="1,5" d="M635,-187.11C635,-187.11 635,-205.99 635,-205.99"/>
<polygon fill="black" stroke="black" points="631.5,-205.99 635,-215.99 638.5,-205.99 631.5,-205.99"/>
</g>
<!-- !environment -->
<g id="node8" class="node">
<title>!environment</title>
<polygon fill="#8dd3c7" stroke="black" points="1147.92,-122 1144.92,-126 1123.92,-126 1120.92,-122 1056.08,-122 1056.08,-86 1147.92,-86 1147.92,-122"/>
<text text-anchor="middle" x="1102" y="-99.8" font-family="Times,serif" font-size="14.00">!environment</text>
</g>
<!-- !environment&#45;&gt;AppModule -->
<g id="edge7" class="edge">
<title>!environment&#45;&gt;AppModule</title>
<path fill="none" stroke="black" d="M1102,-122.29C1102,-144.21 1102,-178 1102,-178 1102,-178 686.85,-178 686.85,-178"/>
<polygon fill="black" stroke="black" points="686.85,-174.5 676.85,-178 686.85,-181.5 686.85,-174.5"/>
</g>
<!-- ThemingModule -->
<g id="node9" class="node">
<title>ThemingModule</title>
<polygon fill="#8dd3c7" stroke="black" points="1038.1,-122 1035.1,-126 1014.1,-126 1011.1,-122 927.9,-122 927.9,-86 1038.1,-86 1038.1,-122"/>
<text text-anchor="middle" x="983" y="-99.8" font-family="Times,serif" font-size="14.00">ThemingModule</text>
</g>
<!-- ThemingModule&#45;&gt;AppModule -->
<g id="edge8" class="edge">
<title>ThemingModule&#45;&gt;AppModule</title>
<path fill="none" stroke="black" d="M983,-122.11C983,-141.34 983,-169 983,-169 983,-169 686.98,-169 686.98,-169"/>
<polygon fill="black" stroke="black" points="686.98,-165.5 676.98,-169 686.98,-172.5 686.98,-165.5"/>
</g>
</g>
</svg>
