<?xml version="1.0" encoding="UTF-8" standalone="no"?>
<!DOCTYPE svg PUBLIC "-//W3C//DTD SVG 1.1//EN"
 "http://www.w3.org/Graphics/SVG/1.1/DTD/svg11.dtd">
<!-- Generated by graphviz version 2.44.1 (20200629.0846)
 -->
<!-- Title: dependencies Pages: 1 -->
<svg width="504pt" height="211pt"
 viewBox="0.00 0.00 504.00 211.00" xmlns="http://www.w3.org/2000/svg" xmlns:xlink="http://www.w3.org/1999/xlink">
<g id="graph0" class="graph" transform="scale(1 1) rotate(0) translate(4 207)">
<title>dependencies</title>
<polygon fill="white" stroke="transparent" points="-4,4 -4,-207 500,-207 500,4 -4,4"/>
<text text-anchor="start" x="227.01" y="-42.4" font-family="sans-serif" font-weight="bold" font-size="14.00">Legend</text>
<polygon fill="#ffffb3" stroke="transparent" points="14,-10 14,-30 34,-30 34,-10 14,-10"/>
<text text-anchor="start" x="37.63" y="-15.4" font-family="sans-serif" font-size="14.00"> &#160;Declarations</text>
<polygon fill="#8dd3c7" stroke="transparent" points="127,-10 127,-30 147,-30 147,-10 127,-10"/>
<text text-anchor="start" x="150.73" y="-15.4" font-family="sans-serif" font-size="14.00"> &#160;Module</text>
<polygon fill="#80b1d3" stroke="transparent" points="213,-10 213,-30 233,-30 233,-10 213,-10"/>
<text text-anchor="start" x="236.78" y="-15.4" font-family="sans-serif" font-size="14.00"> &#160;Bootstrap</text>
<polygon fill="#fdb462" stroke="transparent" points="310,-10 310,-30 330,-30 330,-10 310,-10"/>
<text text-anchor="start" x="333.67" y="-15.4" font-family="sans-serif" font-size="14.00"> &#160;Providers</text>
<polygon fill="#fb8072" stroke="transparent" points="406,-10 406,-30 426,-30 426,-10 406,-10"/>
<text text-anchor="start" x="429.73" y="-15.4" font-family="sans-serif" font-size="14.00"> &#160;Exports</text>
<g id="clust1" class="cluster">
<title>cluster_AppModule</title>
<polygon fill="none" stroke="black" stroke-dasharray="1,5" points="12,-70 12,-195 484,-195 484,-70 12,-70"/>
</g>
<g id="clust3" class="cluster">
<title>cluster_AppModule_imports</title>
<polygon fill="none" stroke="black" points="158,-78 158,-130 476,-130 476,-78 158,-78"/>
</g>
<g id="clust6" class="cluster">
<title>cluster_AppModule_providers</title>
<polygon fill="none" stroke="black" points="20,-78 20,-130 150,-130 150,-78 20,-78"/>
</g>
<!-- SiteConfigurationModule -->
<g id="node1" class="node">
<title>SiteConfigurationModule</title>
<polygon fill="#8dd3c7" stroke="black" points="467.87,-122 464.87,-126 443.87,-126 440.87,-122 308.13,-122 308.13,-86 467.87,-86 467.87,-122"/>
<text text-anchor="middle" x="388" y="-99.8" font-family="Times,serif" font-size="14.00">SiteConfigurationModule</text>
</g>
<!-- AppModule -->
<g id="node3" class="node">
<title>AppModule</title>
<polygon fill="#8dd3c7" stroke="black" points="269.66,-187 266.66,-191 245.66,-191 242.66,-187 186.34,-187 186.34,-151 269.66,-151 269.66,-187"/>
<text text-anchor="middle" x="228" y="-164.8" font-family="Times,serif" font-size="14.00">AppModule</text>
</g>
<!-- SiteConfigurationModule&#45;&gt;AppModule -->
<g id="edge1" class="edge">
<title>SiteConfigurationModule&#45;&gt;AppModule</title>
<path fill="none" stroke="black" d="M388,-122.11C388,-141.34 388,-169 388,-169 388,-169 280.04,-169 280.04,-169"/>
<polygon fill="black" stroke="black" points="280.04,-165.5 270.04,-169 280.04,-172.5 280.04,-165.5"/>
</g>
<!-- SiteFeatureModule -->
<g id="node2" class="node">
<title>SiteFeatureModule</title>
<polygon fill="#8dd3c7" stroke="black" points="289.81,-122 286.81,-126 265.81,-126 262.81,-122 166.19,-122 166.19,-86 289.81,-86 289.81,-122"/>
<text text-anchor="middle" x="228" y="-99.8" font-family="Times,serif" font-size="14.00">SiteFeatureModule</text>
</g>
<!-- SiteFeatureModule&#45;&gt;AppModule -->
<g id="edge2" class="edge">
<title>SiteFeatureModule&#45;&gt;AppModule</title>
<path fill="none" stroke="black" d="M228,-122.11C228,-122.11 228,-140.99 228,-140.99"/>
<polygon fill="black" stroke="black" points="224.5,-140.99 228,-150.99 231.5,-140.99 224.5,-140.99"/>
</g>
<!-- AppService -->
<g id="node4" class="node">
<title>AppService</title>
<ellipse fill="#fdb462" stroke="black" cx="85" cy="-104" rx="56.74" ry="18"/>
<text text-anchor="middle" x="85" y="-99.8" font-family="Times,serif" font-size="14.00">AppService</text>
</g>
<!-- AppService&#45;&gt;AppModule -->
<g id="edge3" class="edge">
<title>AppService&#45;&gt;AppModule</title>
<path fill="none" stroke="black" d="M85,-122.11C85,-141.34 85,-169 85,-169 85,-169 176.25,-169 176.25,-169"/>
<polygon fill="black" stroke="black" points="176.25,-172.5 186.25,-169 176.25,-165.5 176.25,-172.5"/>
</g>
</g>
</svg>
